<svg width="11" height="8" viewBox="0 0 11 8" fill="none" xmlns="http://www.w3.org/2000/svg">
<path d="M6.40597 0.427185L10.5899 5.35922C11.0072 5.85113 11.106 6.41424 10.8864 7.04854C10.6668 7.68285 10.2605 8 9.66746 8L1.2996 8C0.728563 8 0.33323 7.68285 0.113601 7.04854C-0.106028 6.41424 -0.00719451 5.85113 0.4101 5.35922L4.59403 0.427185C4.72581 0.271845 4.86857 0.161812 5.02231 0.0970873C5.17605 0.0323624 5.32979 -4.24754e-08 5.48353 -4.24754e-08C5.68119 -4.24754e-08 5.85141 0.0323624 5.99417 0.0970873C6.13692 0.161812 6.27419 0.271845 6.40597 0.427185Z" fill="#00FF94"/>
</svg>
