<svg width="7" height="14" viewBox="0 0 7 14" fill="none" xmlns="http://www.w3.org/2000/svg">
<path d="M2.18854 13.9209C2.05489 14.0234 1.92124 14.0263 1.78759 13.9295C1.65394 13.8327 1.61496 13.7046 1.67064 13.5452L2.17184 11.8883L0.835322 10.8805C0.723946 10.7781 0.690533 10.6499 0.735083 10.4962C0.779634 10.3425 0.885442 10.2656 1.05251 10.2656H2.67303L3.09069 8.64294L0.785203 7.2423C0.540175 7.09427 0.348051 6.89784 0.208831 6.65301C0.0696102 6.40819 0 6.14343 0 5.85875V1.36647C0 0.990693 0.128083 0.669002 0.384248 0.401401C0.640414 0.1338 0.952267 0 1.31981 0H5.68019C6.04773 0 6.35959 0.1338 6.61575 0.401401C6.87192 0.669002 7 0.990693 7 1.36647V5.85875C7 6.14343 6.93039 6.40819 6.79117 6.65301C6.65195 6.89784 6.45983 7.09427 6.2148 7.2423L3.8926 8.64294L4.32697 10.2656H5.93079C6.09785 10.2656 6.20366 10.3425 6.24821 10.4962C6.29276 10.6499 6.25378 10.7781 6.13126 10.8805L4.81146 11.8883L5.31265 13.5452C5.3572 13.7046 5.31543 13.8327 5.18735 13.9295C5.05927 14.0263 4.9284 14.0177 4.79475 13.9039L3.50835 12.9302L2.18854 13.9209ZM3.57518 7.41311L4.07637 7.10566V1.75933C4.07637 1.59991 4.02904 1.47465 3.93437 1.38355C3.8397 1.29246 3.71997 1.24691 3.57518 1.24691C3.41925 1.24691 3.29674 1.29246 3.20764 1.38355C3.11854 1.47465 3.07399 1.59991 3.07399 1.75933V7.10566L3.57518 7.41311Z" fill="#F9F871"/>
</svg>
