<svg width="23" height="21" viewBox="0 0 23 21" fill="none" xmlns="http://www.w3.org/2000/svg">
<path d="M1.12195 21C0.804065 21 0.537602 20.8912 0.322561 20.6736C0.10752 20.4561 0 20.1865 0 19.8649V7.94595C0 7.62432 0.10752 7.35473 0.322561 7.13716C0.537602 6.9196 0.804065 6.81081 1.12195 6.81081H4.76829C5.08618 6.81081 5.35264 6.9196 5.56768 7.13716C5.78272 7.35473 5.89024 7.62432 5.89024 7.94595V19.8649C5.89024 20.1865 5.78272 20.4561 5.56768 20.6736C5.35264 20.8912 5.08618 21 4.76829 21H1.12195ZM9.62073 21C9.32154 21 9.06443 20.8912 8.84939 20.6736C8.63435 20.4561 8.52683 20.1865 8.52683 19.8649V1.13514C8.52683 0.813514 8.63435 0.543919 8.84939 0.326351C9.06443 0.108784 9.32154 0 9.62073 0H13.3793C13.6785 0 13.9356 0.108784 14.1506 0.326351C14.3657 0.543919 14.4732 0.813514 14.4732 1.13514V19.8649C14.4732 20.1865 14.3657 20.4561 14.1506 20.6736C13.9356 20.8912 13.6785 21 13.3793 21H9.62073ZM18.2317 21C17.9138 21 17.6474 20.8912 17.4323 20.6736C17.2173 20.4561 17.1098 20.1865 17.1098 19.8649V10.2162C17.1098 9.8946 17.2173 9.625 17.4323 9.40743C17.6474 9.18987 17.9138 9.08108 18.2317 9.08108H21.878C22.1959 9.08108 22.4624 9.18987 22.6774 9.40743C22.8925 9.625 23 9.8946 23 10.2162V19.8649C23 20.1865 22.8925 20.4561 22.6774 20.6736C22.4624 20.8912 22.1959 21 21.878 21H18.2317Z" fill="white"/>
</svg>
