<svg width="23" height="23" viewBox="0 0 23 23" fill="none" xmlns="http://www.w3.org/2000/svg">
<path d="M13.4352 23H9.53655C9.25404 23 8.99979 22.9168 8.77378 22.7503C8.54777 22.5838 8.41593 22.3619 8.37826 22.0844L7.9545 19.3932C7.65316 19.2823 7.32827 19.1297 6.97984 18.9355C6.63141 18.7413 6.33478 18.5424 6.08993 18.339L3.57559 19.5042C3.31192 19.6337 3.04353 19.6522 2.77044 19.5597C2.49735 19.4672 2.28547 19.2915 2.13479 19.0326L0.157223 15.5645C0.00655101 15.3241 -0.0358256 15.0698 0.0300934 14.8016C0.0960124 14.5334 0.241976 14.3068 0.467984 14.1218L2.81282 12.4572C2.77515 12.3277 2.75161 12.1705 2.74219 11.9855C2.73277 11.8006 2.72806 11.6433 2.72806 11.5139C2.72806 11.3844 2.73277 11.2272 2.74219 11.0422C2.75161 10.8573 2.77515 10.7 2.81282 10.5706L0.467984 8.87817C0.241976 8.7117 0.0960124 8.48975 0.0300934 8.2123C-0.0358256 7.93486 0.00655101 7.68516 0.157223 7.46321L2.13479 3.99517C2.28547 3.75472 2.49735 3.58826 2.77044 3.49578C3.04353 3.4033 3.31192 3.41255 3.57559 3.52352L6.11818 4.68878C6.36303 4.48532 6.65495 4.29111 6.99397 4.10615C7.33298 3.92119 7.65316 3.78247 7.9545 3.68999L8.37826 0.943305C8.41593 0.665862 8.54777 0.439284 8.77378 0.263571C8.99979 0.0878568 9.25404 0 9.53655 0H13.4352C13.7177 0 13.972 0.0878568 14.198 0.263571C14.424 0.439284 14.5558 0.665862 14.5935 0.943305L15.0172 3.66224C15.3186 3.77322 15.6435 3.91657 15.9919 4.09228C16.3403 4.26799 16.637 4.46683 16.8818 4.68878L19.3962 3.52352C19.6598 3.41255 19.9282 3.39867 20.2013 3.48191C20.4744 3.56514 20.6863 3.73623 20.837 3.99517L22.8428 7.43546C22.9934 7.67591 23.0358 7.93486 22.9699 8.2123C22.904 8.48975 22.7486 8.7117 22.5038 8.87817L20.1589 10.5151C20.1778 10.663 20.1966 10.8295 20.2154 11.0145C20.2343 11.1994 20.2437 11.3659 20.2437 11.5139C20.2437 11.6618 20.2343 11.8237 20.2154 11.9994C20.1966 12.1751 20.1778 12.337 20.1589 12.4849L22.5038 14.1218C22.7298 14.3068 22.8757 14.5334 22.9417 14.8016C23.0076 15.0698 22.9746 15.3241 22.8428 15.5645L20.837 19.0326C20.6863 19.2915 20.4744 19.4672 20.2013 19.5597C19.9282 19.6522 19.6598 19.6337 19.3962 19.5042L16.8536 18.339C16.6087 18.5424 16.3215 18.7459 15.9919 18.9493C15.6623 19.1528 15.3374 19.3008 15.0172 19.3932L14.5935 22.0844C14.5558 22.3619 14.424 22.5838 14.198 22.7503C13.972 22.9168 13.7177 23 13.4352 23ZM11.4576 15.1206C12.4747 15.1206 13.341 14.7692 14.0567 14.0663C14.7724 13.3635 15.1303 12.5127 15.1303 11.5139C15.1303 10.5151 14.7724 9.66425 14.0567 8.9614C13.341 8.25854 12.4747 7.90712 11.4576 7.90712C10.4406 7.90712 9.57422 8.25854 8.85853 8.9614C8.14284 9.66425 7.78499 10.5151 7.78499 11.5139C7.78499 12.5127 8.14284 13.3635 8.85853 14.0663C9.57422 14.7692 10.4406 15.1206 11.4576 15.1206Z" fill="white"/>
</svg>
